<svg width="517" height="600" viewBox="0 0 517 600" fill="none" xmlns="http://www.w3.org/2000/svg">
<path d="M367.822 293.548C368.307 293.361 368.8 293.132 369.294 292.903C372.897 291.233 376.399 289.355 379.783 287.278C383.059 288.008 389.884 288.761 397.702 289.5C406.21 296.714 416.339 301.763 427.222 304.215C446.833 308.909 454.145 297.342 458.915 290.635C463.685 283.927 450.167 280.429 442.329 276.206C434.491 271.983 408.125 284.038 408.125 284.038L397.208 288.801L380.024 287.125C385.698 283.642 390.837 279.847 395.742 276.178C402.797 270.997 409.399 266.069 416.477 263.104C432.073 256.479 449.112 254.702 459.082 254.254C459.082 254.254 506.44 266.854 499.909 249.21C494.46 234.727 470.259 247.53 461.913 252.541C452.496 252.758 433.261 254.193 415.792 261.61C408.507 264.705 401.795 269.668 394.692 274.927C388.947 279.337 382.954 283.417 376.744 287.146C387.818 275.518 396.41 252.648 399.772 234.775C402.959 231.886 406.676 229.64 410.717 228.161C415.79 229.896 424.712 238.194 434.077 238.938C444.23 239.726 471.91 223.363 472.811 214.217C473.713 205.07 451.963 203.026 433.383 209.075C418.259 213.977 411.819 223.349 409.948 226.648C406.486 228.006 403.226 229.829 400.257 232.067C400.488 231.028 400.593 229.96 400.714 228.955C401.419 223.162 401.767 217.331 401.756 211.495C401.824 206.025 401.888 201.631 402.986 197.629C407.091 197.615 425.174 196.911 430.719 185.732C436.948 173.068 437.56 150.72 426.289 149.256C415.018 147.792 408.815 160.402 402.86 170.841C397.183 180.826 396.581 191.278 401.495 196.84C400.24 201.146 400.176 205.805 400.102 211.436C400.122 217.199 399.78 222.959 399.079 228.679C398.863 230.445 398.554 232.293 398.205 234.19C396.819 241.398 394.88 248.488 392.404 255.397C392.154 246.053 388.373 236.998 384.58 230.182C384.396 224.981 383.206 219.864 381.076 215.115C377.43 207.904 370.96 204.826 367.554 213.356C364.149 221.886 371.069 237.316 383.825 232.446C387.989 240.245 391.746 250.533 390.463 260.464C384.901 274.308 377.255 286.641 368.995 291.067L366.841 292.061L366.277 292.275C366.277 292.275 366.261 292.345 366.156 292.351C354.565 297.229 340.51 300.114 322.084 298.515C321.869 298.493 321.653 298.554 321.481 298.686C321.309 298.818 321.194 299.01 321.159 299.223C321.143 299.446 321.214 299.666 321.359 299.836C321.503 300.006 321.708 300.112 321.931 300.132C341.256 301.931 355.856 298.785 367.822 293.548Z" fill="#BDDBFF"/>
<path d="M251 361C254.248 364.233 256.567 368.28 257.716 372.716C258.865 377.153 258.801 381.817 257.53 386.22L251.17 378.74C251.17 378.74 256.23 369.86 251 361Z" fill="#4774D1"/>
<path d="M91.1664 266.714L75.8541 302.833C75.1627 304.464 74.1427 305.936 72.8575 307.155C71.5724 308.375 70.0497 309.317 68.3845 309.922C66.7193 310.527 64.9472 310.782 63.1789 310.672C61.4106 310.562 59.684 310.089 58.1067 309.282C49.7287 305.02 39.0941 296.399 31.5376 279.017C30.7528 277.208 30.3919 275.244 30.4824 273.274C30.573 271.304 31.1126 269.381 32.06 267.652C33.0074 265.922 34.3376 264.432 35.9489 263.296C37.5602 262.159 39.41 261.406 41.357 261.093C53.5946 259.12 68.4899 257.218 68.4899 257.218L36.7775 236.014C34.4816 234.479 32.7751 232.21 31.9375 229.578C31.0999 226.946 31.181 224.108 32.1674 221.529C36.3511 210.578 46.3882 193.848 69.0488 191.175C73.3489 190.694 77.6754 191.816 81.2007 194.324C84.7261 196.833 87.2029 200.554 88.1577 204.774L96.8803 242.745L105.252 214.99C105.758 213.322 106.691 211.814 107.959 210.618C109.227 209.421 110.785 208.576 112.48 208.166C114.175 207.757 115.947 207.797 117.622 208.283C119.296 208.77 120.815 209.685 122.027 210.938C128.358 217.442 135.562 226.229 139.226 235.329C139.925 237.128 140.24 239.053 140.151 240.981C140.062 242.909 139.571 244.797 138.709 246.524C137.848 248.251 136.635 249.779 135.148 251.009C133.662 252.24 131.934 253.146 130.077 253.67L98.2584 262.832L91.1664 266.714Z" fill="#C1DDFF" stroke="#C1DDFF" stroke-width="4.29" stroke-linecap="round" stroke-linejoin="round"/>
<path d="M99.3945 271.536C99.3945 271.536 132.295 333.059 188.846 316.951C197.376 314.608 205.48 310.925 212.855 306.041" stroke="#5D81BA" stroke-width="4.51" stroke-linecap="round" stroke-linejoin="round"/>
<path d="M100.272 273.609L70.4728 259.32L68.9062 230.89L97.4438 241.328L100.272 273.609Z" fill="#5D81BA" stroke="#5D81BA" stroke-width="4.51" stroke-linecap="round" stroke-linejoin="round"/>
<path d="M63.3651 405.48C53.0451 468.76 102.575 526.05 166.685 526.59H337.5C364.875 524.92 396 511 408.5 482C445 413.5 394.5 363 394.5 363L318.825 316L298.475 352.2L297.955 352.96C295.441 356.594 293.745 360.729 292.982 365.081C292.219 369.432 292.408 373.898 293.535 378.17L302 388.5L280.5 412L252.295 379.84L253.125 378.05C254.681 374.659 255.061 370.846 254.206 367.215C253.351 363.584 251.31 360.341 248.405 358L193.475 314L91.1251 363C74.9251 369.87 66.5551 386 63.3651 405.48Z" fill="white"/>
<path d="M85.0116 367L66 386.012" stroke="#5D81BA" stroke-width="4" stroke-linecap="round" stroke-linejoin="round"/>
<path d="M66 367L85.0116 386.012" stroke="#5D81BA" stroke-width="4" stroke-linecap="round" stroke-linejoin="round"/>
<path d="M461.5 492C464.538 492 467 489.538 467 486.5C467 483.462 464.538 481 461.5 481C458.462 481 456 483.462 456 486.5C456 489.538 458.462 492 461.5 492Z" stroke="white" stroke-width="2" stroke-linecap="round" stroke-linejoin="round"/>
<path d="M472.5 379C475.538 379 478 376.538 478 373.5C478 370.462 475.538 368 472.5 368C469.462 368 467 370.462 467 373.5C467 376.538 469.462 379 472.5 379Z" stroke="white" stroke-width="2" stroke-linecap="round" stroke-linejoin="round"/>
<path d="M17.5 252C19.9853 252 22 249.985 22 247.5C22 245.015 19.9853 243 17.5 243C15.0147 243 13 245.015 13 247.5C13 249.985 15.0147 252 17.5 252Z" fill="#EDF5FF" stroke="#EDF5FF" stroke-width="3" stroke-linecap="round" stroke-linejoin="round"/>
<path d="M232.5 544C234.433 544 236 542.433 236 540.5C236 538.567 234.433 537 232.5 537C230.567 537 229 538.567 229 540.5C229 542.433 230.567 544 232.5 544Z" fill="#EDF5FF"/>
<path d="M393.477 310.285L388.126 320.618L379.014 320.569L381.89 312.141L393.477 310.285Z" fill="#5D81BA" stroke="#5D81BA" stroke-width="4.51" stroke-linecap="round" stroke-linejoin="round"/>
<path d="M205.946 558.483L204.396 546.95L211.885 541.759L214.368 550.311L205.946 558.483Z" fill="#5D81BA" stroke="#5D81BA" stroke-width="4.51" stroke-linecap="round" stroke-linejoin="round"/>
<path d="M495.677 474.228L484.124 472.835L480.979 464.282L489.881 464.025L495.677 474.228Z" fill="#5D81BA" stroke="#5D81BA" stroke-width="4.51" stroke-linecap="round" stroke-linejoin="round"/>
<path d="M122.551 162.347L132.017 169.114L130.672 178.127L122.739 174.08L122.551 162.347Z" fill="#5D81BA" stroke="#5D81BA" stroke-width="4.51" stroke-linecap="round" stroke-linejoin="round"/>
<path d="M85 332.001L104.274 308.797L127.323 313.956L115.375 333.704L85 332.001Z" fill="#5D81BA" stroke="#5D81BA" stroke-width="4.51" stroke-linecap="round" stroke-linejoin="round"/>
<path d="M156.335 268L172.938 293.184L161.306 313.74L145.88 296.57L156.335 268Z" fill="#5D81BA" stroke="#5D81BA" stroke-width="4.51" stroke-linecap="round" stroke-linejoin="round"/>
<path d="M193.726 265.955L194.529 316.703L213.746 332.104L213.186 293.491L193.726 265.955Z" fill="#4774D1"/>
<path d="M289.4 100.877L321.778 237.34L344.24 221.347L347.908 152.65L311.302 92.8325L289.4 100.877Z" fill="#5B86C4"/>
<path d="M301.353 388.582L291.935 399.765L274.705 317.697L328.614 261.145L326.828 328.161L305.328 358.002C302.565 361.835 300.686 366.232 299.825 370.878C298.965 375.524 299.143 380.303 300.349 384.872L301.353 388.582Z" fill="#4774D1"/>
<path d="M343.699 205.312L261.355 313.067L287.422 322.126L319.799 292.814L344.682 246.252L345.2 209.097L343.699 205.312Z" fill="#5B86C4"/>
<path d="M314.207 151.668L323.742 165.684L329.344 161.72L321.395 147.08L314.207 151.668Z" fill="#DEF2FF"/>
<path d="M343.709 205.312V251.241C344.746 251.241 345.741 250.829 346.474 250.095C347.208 249.362 347.62 248.367 347.62 247.33V245.047L354.956 208.05L355.241 189.985L347.62 185.429L343.709 205.312Z" fill="#4774D1"/>
<path d="M169.087 182.533L175.683 228.176C174.699 230.65 174.434 233.352 174.918 235.97C175.402 238.588 176.617 241.017 178.421 242.975L183.505 248.44L179.361 196.835L176.317 177.449L169.087 182.533Z" fill="#4774D1"/>
<path d="M221.167 252.013C221.167 252.013 239.137 270.162 247.107 274.158C255.077 278.153 272.867 279.147 282.285 272.562C291.703 265.976 299.864 254.211 299.864 254.211L221.167 252.013Z" fill="#4774D1"/>
<path d="M231.8 249.613L235.309 258.799L260.784 267.72C262.847 268.443 265.104 268.383 267.126 267.551L288.552 258.799L289.408 249.624L231.8 249.613Z" fill="#DEF2FF"/>
<path d="M194.425 133.91L181.053 200.408H178.802L176.296 186.318L169.087 186.793L149.226 123.033C146.851 115.429 147.593 107.194 151.287 100.137C162.343 78.9965 192.226 37.772 257.456 37.0109C338.615 36.0596 364.682 97.6427 368.16 123.963C368.573 127.085 368.433 130.255 367.747 133.328C362.959 154.871 355.496 190.007 355.496 190.007L348.488 192.575L347.484 205.26H344.26C344.26 205.26 344.26 169.712 329.356 143.571C314.451 117.43 295.996 103.594 295.996 103.594L242.467 128.191C242.467 128.191 212.183 143.117 194.425 133.91Z" fill="#1E1928"/>
<path d="M263.978 232.711L265.627 240.491L299.822 251.347V259.592H304.779L307.369 240.967L270.817 230.586L263.978 232.711Z" fill="#1E1928"/>
<path d="M235.312 216.633L216.888 234.159C216.888 234.159 215.091 225.47 220.482 219.477C225.873 213.483 235.312 216.633 235.312 216.633Z" fill="#4774D1"/>
<path d="M287.435 213.335L304.094 239.095C305.813 236.353 306.882 233.254 307.219 230.035C307.556 226.816 307.153 223.562 306.038 220.523C302.106 210.344 287.435 213.335 287.435 213.335Z" fill="#4774D1"/>
<path d="M277.128 222.045C277.128 222.045 281.652 218.314 281.927 210.598L287.434 213.335C287.434 213.335 287.381 222.849 281.525 224.963L277.128 222.045Z" fill="white"/>
<path d="M259.695 208.875C259.695 208.875 258.754 219.086 257.581 223.515H269.42C271.838 219.49 273.021 214.845 272.824 210.154L259.695 208.875Z" fill="white"/>
<path d="M182.383 216.19C185.733 210.633 190.468 206.04 196.124 202.86L209.242 214.942C204.184 218.752 199.659 223.22 195.786 228.229L182.383 216.19Z" fill="white"/>
<path d="M247.467 290.722L224.445 261.125L209.012 276.282C209.012 276.282 217.891 296.683 231.21 303.628L247.467 290.722Z" fill="white"/>
<path d="M315.995 213.547L322.39 240.67C322.39 240.67 340.751 224.529 333.013 202.892L315.995 213.547Z" fill="white"/>
<path d="M224.962 248.958L263.079 252.594L295.255 248.958L269.759 241.801C269.759 241.801 260.33 246.315 253.238 240.639L224.962 247.203V248.958Z" fill="#4774D1"/>
<path d="M231.799 249.613L235.308 258.799L221.154 252.012L223.691 246.611L231.799 249.613Z" fill="#1E1928"/>
<path d="M289.399 249.623L288.554 258.799L299.822 254.211L301.471 250.363L295.255 248.958L289.399 249.623Z" fill="#1E1928"/>
<path d="M241.271 224.984L246.081 223.737C247.298 223.421 248.58 223.452 249.78 223.826C250.981 224.199 252.054 224.901 252.878 225.851L255.394 228.758L241.271 224.984Z" fill="#1E1928"/>
<path d="M267.879 228.757L270.67 226.474C271.787 225.564 273.11 224.943 274.524 224.665C275.938 224.386 277.398 224.46 278.777 224.878L281.536 225.724L267.879 228.757Z" fill="#1E1928"/>
<path d="M247.105 280.838L284.535 279.475C282.744 282.833 280.033 285.611 276.719 287.483C273.405 289.355 269.626 290.244 265.826 290.045C252.179 289.601 247.105 280.838 247.105 280.838Z" fill="#4774D1"/>
<path d="M210.374 193.357H240.669C240.669 193.357 237.783 205.746 225.986 205.312C214.19 204.879 210.374 193.357 210.374 193.357Z" fill="#4774D1"/>
<path d="M287.435 192.639C287.435 192.639 289.718 203.938 304.506 203.981C318.004 203.981 319.801 193.41 319.801 193.41L287.435 192.639Z" fill="#4774D1"/>
<path d="M287.435 162.122V159.332L317.624 155.949L324.907 167.492C324.907 167.492 316.947 164.564 287.435 162.122Z" fill="#1E1928"/>
<path d="M251.957 230.586L215.489 237.817C215.489 237.817 213.83 248.302 213.28 257.065H219.855L223.639 247.277L259.293 239.709L251.957 230.586Z" fill="#1E1928"/>
<path d="M200.501 165.684L207.974 156.815H233.703L239.094 164.468L200.501 165.684Z" fill="#1E1928"/>
<path d="M203.523 183.432C203.523 183.432 225.224 166.213 241.27 186.095C241.27 186.095 238.607 170.832 222.402 171.899C206.198 172.967 203.523 183.432 203.523 183.432Z" fill="#1E1928"/>
<path d="M282.285 184.647C282.285 184.647 289.97 172.935 304.346 173.643C318.721 174.352 321.744 183.939 321.744 183.939C321.744 183.939 303.701 169.764 282.285 184.647Z" fill="#1E1928"/>
<path d="M227.87 183.939C228.955 182.723 229.557 181.151 229.561 179.521C229.336 177.733 228.466 176.089 227.114 174.897C225.762 173.705 224.022 173.047 222.22 173.047C220.418 173.047 218.678 173.705 217.326 174.897C215.975 176.089 215.104 177.733 214.879 179.521C214.883 181.151 215.485 182.723 216.57 183.939H227.87Z" fill="#1E1928"/>
<path d="M219.803 182.618C221.175 182.618 222.287 181.506 222.287 180.134C222.287 178.762 221.175 177.65 219.803 177.65C218.431 177.65 217.319 178.762 217.319 180.134C217.319 181.506 218.431 182.618 219.803 182.618Z" fill="#F9DCBB"/>
<path d="M307.115 185.451C308.204 184.236 308.809 182.664 308.817 181.032C308.601 179.236 307.734 177.581 306.38 176.38C305.027 175.179 303.28 174.516 301.47 174.516C299.661 174.516 297.914 175.179 296.56 176.38C295.207 177.581 294.34 179.236 294.124 181.032C294.132 182.664 294.737 184.236 295.826 185.451H307.115Z" fill="#1E1928"/>
<path d="M299.052 184.13C300.424 184.13 301.536 183.018 301.536 181.646C301.536 180.274 300.424 179.162 299.052 179.162C297.68 179.162 296.568 180.274 296.568 181.646C296.568 183.018 297.68 184.13 299.052 184.13Z" fill="#F9DCBB"/>
<path d="M197.816 170.515L196.209 173.104C194.366 176.076 193.389 179.502 193.387 182.998V190.155C193.387 192.637 194.037 195.075 195.272 197.229C196.507 199.382 198.284 201.174 200.427 202.427L212.477 209.456C214.341 210.546 216.419 211.22 218.568 211.434C220.717 211.647 222.886 211.395 224.929 210.693L237.613 206.348C239.768 205.61 241.73 204.399 243.356 202.804C244.982 201.209 246.23 199.271 247.01 197.131L253.289 179.975C254.183 177.593 254.49 175.03 254.184 172.504C253.879 169.978 252.97 167.563 251.534 165.462C250.583 164.109 249.505 163.126 248.363 163.052H209.285C204.729 163.168 200.236 166.614 197.816 170.515Z" stroke="#1E1928" stroke-width="2.86" stroke-linecap="round" stroke-linejoin="round"/>
<path d="M326.883 168.845L329.431 172.946C331.343 176.016 332.357 179.561 332.359 183.178V191.444C332.357 193.533 331.808 195.585 330.768 197.397C329.728 199.209 328.232 200.717 326.429 201.771L312.867 209.689C311.126 210.707 309.186 211.337 307.179 211.536C305.172 211.735 303.146 211.498 301.239 210.841L288.808 206.613C286.453 205.802 284.307 204.476 282.528 202.731C280.749 200.987 279.381 198.868 278.523 196.528L270.353 174.077C270.353 174.077 273.524 163.263 277.414 163.01H318.638C322.063 163.137 325.107 165.991 326.883 168.845Z" stroke="#1E1928" stroke-width="2.86" stroke-linecap="round" stroke-linejoin="round"/>
<path d="M237.328 163.052H294.123" stroke="#87B7BF" stroke-width="2.86" stroke-linecap="round" stroke-linejoin="round"/>
<path d="M254.729 174.077C254.729 174.077 263.026 170.716 270.352 174.077" stroke="#87B7BF" stroke-width="2.86" stroke-linecap="round" stroke-linejoin="round"/>
<path d="M182.618 237.341C182.618 237.341 196.497 280.024 210.376 286.145C211.549 295.214 241.273 329.208 261.537 298.005H268.841C268.841 298.005 295.013 327.221 318.659 283.28C318.659 283.28 332.602 279.887 343.711 240.639L344.261 251.241L330.519 282.212C328.612 287.355 325.32 291.869 321.006 295.256C312.38 302.021 296.694 314.135 282.107 324.23C277.901 327.14 272.978 328.844 267.873 329.157C262.768 329.47 257.674 328.38 253.144 326.006C242.087 320.202 226.929 312.053 215.513 305.15C207.818 300.479 201.905 293.369 198.717 284.95C190.757 263.989 183.506 248.229 183.506 248.229L182.618 237.341Z" fill="#1E1928"/>
<path d="M191.368 153.983L210.374 145.717L213.27 152.545L195.829 161.255L191.368 153.983Z" fill="#DEF2FF"/>
<path d="M262.869 175.039L257.235 209.773H248.324L256.083 176.349L262.869 175.039Z" fill="#4774D1"/>
<path d="M193.727 179.479L176.297 186.318" stroke="#1E1928" stroke-width="2.86" stroke-linecap="round" stroke-linejoin="round"/>
<path d="M332.347 183.178L347.61 185.451" stroke="#1E1928" stroke-width="2.86" stroke-linecap="round" stroke-linejoin="round"/>
<path d="M234.582 256.896L245.005 258.048C245.102 258.064 245.19 258.114 245.253 258.188C245.316 258.263 245.351 258.357 245.351 258.455C245.351 258.553 245.316 258.648 245.253 258.723C245.19 258.797 245.102 258.847 245.005 258.862L235.354 258.799L231.845 256.896H234.582Z" fill="#1E1928"/>
<path d="M288.753 256.896L282.03 258.461C281.978 258.464 281.926 258.478 281.879 258.501C281.831 258.525 281.789 258.557 281.754 258.597C281.719 258.637 281.693 258.683 281.676 258.733C281.659 258.783 281.652 258.836 281.655 258.889C281.659 258.942 281.672 258.993 281.696 259.041C281.719 259.088 281.752 259.13 281.792 259.165C281.831 259.2 281.877 259.227 281.928 259.244C281.978 259.261 282.031 259.268 282.083 259.264L288.552 258.799L291.533 256.896H288.753Z" fill="#1E1928"/>
<path d="M194.424 133.909C182.821 127.282 173.861 116.854 169.055 104.386C169.055 104.386 200.058 139.269 231.769 132.525C231.801 132.503 209.116 142.366 194.424 133.909Z" fill="#4774D1"/>
<path d="M64.861 351.75C67.6261 350.581 68.9198 347.392 67.7506 344.627C66.5814 341.861 63.392 340.568 60.6268 341.737C57.8617 342.906 56.568 346.096 57.7372 348.861C58.9064 351.626 62.0958 352.92 64.861 351.75Z" stroke="white" stroke-width="2" stroke-linecap="round" stroke-linejoin="round"/>
<path d="M167.588 251.587C169.501 250.779 170.396 248.572 169.587 246.659C168.778 244.746 166.572 243.851 164.659 244.66C162.746 245.469 161.851 247.675 162.66 249.588C163.469 251.501 165.675 252.396 167.588 251.587Z" stroke="white" stroke-width="2" stroke-linecap="round" stroke-linejoin="round"/>
<path d="M100.23 188.276C101.142 187.89 102.195 188.317 102.581 189.23C102.967 190.142 102.54 191.195 101.627 191.581C100.714 191.967 99.6618 191.54 99.2759 190.627C98.89 189.714 99.317 188.662 100.23 188.276Z" stroke="white" stroke-linecap="round" stroke-linejoin="round"/>
<path d="M367.393 271.392C369.306 270.583 370.201 268.377 369.392 266.464C368.583 264.551 366.376 263.656 364.464 264.465C362.551 265.273 361.656 267.48 362.465 269.393C363.273 271.306 365.48 272.201 367.393 271.392Z" stroke="white" stroke-width="2" stroke-linecap="round" stroke-linejoin="round"/>
<path d="M466.393 178.392C468.306 177.583 469.201 175.377 468.392 173.464C467.583 171.551 465.376 170.656 463.464 171.465C461.551 172.273 460.656 174.48 461.465 176.393C462.273 178.306 464.48 179.201 466.393 178.392Z" stroke="white" stroke-width="2" stroke-linecap="round" stroke-linejoin="round"/>
<path d="M404.201 421.751L433.611 447.581C436.403 449.954 439.99 451.18 443.65 451.011C447.31 450.842 450.77 449.291 453.331 446.671C459.661 439.861 466.401 428.431 466.641 410.501C466.741 402.501 458.471 396.551 449.871 398.501C437.291 401.301 422.151 405.121 422.151 405.121L444.071 374.961C445.661 372.818 446.393 370.158 446.123 367.503C445.853 364.849 444.6 362.39 442.611 360.611C434.121 352.611 417.611 341.721 394.711 347.741C385.711 350.111 380.231 358.301 381.851 366.641L388.911 402.931L369.611 381.831C364.501 376.271 354.691 377.741 351.801 384.481C348.351 392.481 345.001 402.801 345.181 412.071C345.341 419.781 353.001 425.601 361.461 424.681L395.851 420.951L404.201 421.751Z" fill="#95BEEF" stroke="#95BEEF" stroke-width="4.51" stroke-linecap="round" stroke-linejoin="round"/>
<path d="M397.97 426.001C397.97 426.001 391.29 491.742 330.3 498.542C269.31 505.342 248.44 458.491 248.44 458.491" stroke="#5D81BA" stroke-width="4.51" stroke-linecap="round" stroke-linejoin="round"/>
<path d="M343.569 495.381L360.439 465.081L343.099 443.641L326.529 464.831L343.569 495.381Z" fill="#5D81BA" stroke="#5D81BA" stroke-width="4.51" stroke-linecap="round" stroke-linejoin="round"/>
<path d="M306.369 447.931L270.149 439.101L250.429 458.791L276.719 469.191L306.369 447.931Z" fill="#5D81BA" stroke="#5D81BA" stroke-width="4.51" stroke-linecap="round" stroke-linejoin="round"/>
<path d="M192 460.751L229 455.181L237.9 429.871L209.2 430.271L192 460.751Z" fill="#5D81BA" stroke="#5D81BA" stroke-width="4.51" stroke-linecap="round" stroke-linejoin="round"/>
<path d="M257.57 530.791L278.15 502.431L263.63 479.341L244.49 498.691L257.57 530.791Z" fill="#5D81BA" stroke="#5D81BA" stroke-width="4.51" stroke-linecap="round" stroke-linejoin="round"/>
<path d="M432.72 499.211L405.15 469.511L375.96 477.891L393.66 499.731L432.72 499.211Z" fill="#5D81BA" stroke="#5D81BA" stroke-width="4.51" stroke-linecap="round" stroke-linejoin="round"/>
<path d="M339.518 547.901L340.478 512.771L313.748 499.621L308.608 526.111L339.518 547.901Z" fill="#5D81BA" stroke="#5D81BA" stroke-width="4.51" stroke-linecap="round" stroke-linejoin="round"/>
<path d="M397.971 428.131L420.861 404.701L410.781 379.361L387.551 398.961L397.971 428.131Z" fill="#5D81BA" stroke="#5D81BA" stroke-width="4.51" stroke-linecap="round" stroke-linejoin="round"/>
<path d="M248.412 458.721C248.412 458.721 235.242 432.611 237.702 403.721" stroke="#5D81BA" stroke-width="4.51" stroke-linecap="round" stroke-linejoin="round"/>
<path d="M218.287 486V498.574" stroke="#7CAEDF" stroke-width="2" stroke-linecap="round" stroke-linejoin="round"/>
<path d="M224.571 492.287H212" stroke="#7CAEDF" stroke-width="2" stroke-linecap="round" stroke-linejoin="round"/>
<path d="M38.0486 320.927C38.348 320.006 39.6514 320.006 39.9508 320.927L40.1223 321.455C40.2561 321.867 40.6401 322.146 41.0733 322.146H41.6284C42.5971 322.146 42.9999 323.386 42.2161 323.955L41.7671 324.281C41.4166 324.536 41.27 324.987 41.4038 325.399L41.5754 325.927C41.8747 326.848 40.8202 327.614 40.0365 327.045L39.5875 326.719C39.237 326.464 38.7624 326.464 38.4119 326.719L37.9629 327.045C37.1792 327.614 36.1247 326.848 36.424 325.927L36.5956 325.399C36.7294 324.987 36.5828 324.536 36.2323 324.281L35.7833 323.955C34.9995 323.386 35.4023 322.146 36.371 322.146H36.9261C37.3593 322.146 37.7433 321.867 37.8771 321.455L38.0486 320.927Z" fill="#95BEEF"/>
<path d="M344.049 306.927C344.348 306.006 345.652 306.006 345.951 306.927L346.123 307.455C346.256 307.867 346.64 308.146 347.074 308.146H347.629C348.597 308.146 349 309.386 348.216 309.955L347.767 310.281C347.417 310.536 347.27 310.987 347.404 311.399L347.576 311.927C347.875 312.848 346.821 313.614 346.037 313.045L345.588 312.719C345.237 312.464 344.763 312.464 344.412 312.719L343.963 313.045C343.179 313.614 342.125 312.848 342.424 311.927L342.596 311.399C342.73 310.987 342.583 310.536 342.233 310.281L341.784 309.955C341 309.386 341.403 308.146 342.371 308.146H342.926C343.36 308.146 343.744 307.867 343.877 307.455L344.049 306.927Z" fill="#95BEEF"/>
<path d="M411.049 114.927C411.348 114.006 412.652 114.006 412.951 114.927L413.123 115.455C413.256 115.867 413.64 116.146 414.074 116.146H414.629C415.597 116.146 416 117.386 415.216 117.955L414.767 118.281C414.417 118.536 414.27 118.987 414.404 119.399L414.576 119.927C414.875 120.848 413.821 121.614 413.037 121.045L412.588 120.719C412.237 120.464 411.763 120.464 411.412 120.719L410.963 121.045C410.179 121.614 409.125 120.848 409.424 119.927L409.596 119.399C409.73 118.987 409.583 118.536 409.233 118.281L408.784 117.955C408 117.386 408.403 116.146 409.371 116.146H409.926C410.36 116.146 410.744 115.867 410.877 115.455L411.049 114.927Z" fill="#95BEEF"/>
</svg>
