<svg width="50" height="50" viewBox="0 0 50 50" fill="none" xmlns="http://www.w3.org/2000/svg">
<g clip-path="url(#clip0_10_4253)">
<path d="M49 1H1V49H49V1Z" stroke="#305083" stroke-width="2"/>
<mask id="mask0_10_4253" style="mask-type:luminance" maskUnits="userSpaceOnUse" x="7" y="7" width="36" height="38">
<path d="M42.8569 7.14282H7.14258V44.6428H42.8569V7.14282Z" fill="white"/>
</mask>
<g mask="url(#mask0_10_4253)">
<path d="M22.1633 33.0014C22.5991 33.8189 22.9039 35.1896 23.0182 36.0785C23.0577 36.205 23.1309 36.3184 23.23 36.4067C23.4686 36.5869 23.7479 36.7059 24.0434 36.7533C24.3388 36.8007 24.6414 36.7751 24.9247 36.6787C25.0642 36.646 25.1872 36.5643 25.2712 36.4484C25.3552 36.3326 25.3945 36.1905 25.3819 36.0481C25.3163 34.9236 25.6333 33.8858 26.1058 32.8889C26.4421 32.2275 26.9086 31.6405 27.4773 31.1627C27.6739 30.9879 27.7974 30.9986 27.9879 31.1718C28.0431 31.2179 28.0941 31.2687 28.1403 31.3238C28.6461 31.9777 29.0001 32.7354 29.1766 33.5423C29.3314 34.2662 29.401 35.0057 29.3838 35.7457C29.3838 36.0967 29.4509 36.1712 29.7785 36.3034C30.1108 36.424 30.4666 36.4662 30.8179 36.4265C30.9887 36.4285 31.1561 36.3785 31.2977 36.2832C31.4393 36.1879 31.5484 36.0518 31.6104 35.8931C31.8466 35.3248 32.1148 34.7671 32.3723 34.2079C32.7098 33.5409 33.1186 32.9122 33.5915 32.3328C33.6323 32.277 33.6794 32.226 33.7317 32.1808C33.9801 31.9726 34.1234 31.9817 34.2224 32.2689C34.348 32.6091 34.4369 32.9616 34.4876 33.3205C34.6263 34.565 34.704 35.8095 34.5059 37.0586C34.3459 38.0783 34.2011 39.0979 33.8689 40.0795C33.7063 40.5628 33.5407 41.045 33.372 41.5262C33.325 41.663 33.3301 41.8123 33.3863 41.9457C33.4425 42.0791 33.5459 42.1872 33.6768 42.2495C33.8835 42.3395 34.1082 42.3807 34.3334 42.3698C34.5586 42.359 34.7783 42.2965 34.9753 42.1872C35.0335 42.1563 35.0853 42.1145 35.1277 42.0641C35.4323 41.7155 35.6826 41.3231 35.8699 40.9001C36.0222 40.5612 36.1518 40.2193 36.2966 39.8805C37.0307 38.2216 37.4354 36.4367 37.4883 34.6243C37.5066 33.7125 37.4883 32.8008 37.1348 31.9422C36.9397 31.462 36.6639 31.0442 36.1853 30.798C35.9384 30.6703 35.6854 30.5564 35.4325 30.4424C34.8565 30.1932 34.2157 30.1341 33.6037 30.2737C32.6664 30.4561 31.9273 30.9727 31.3056 31.6626L30.952 32.044C30.901 31.9784 30.8547 31.9094 30.8133 31.8374C30.5364 31.3111 30.1596 30.8436 29.7039 30.4606C29.4241 30.2057 29.093 30.0132 28.7327 29.8958C28.3725 29.7784 27.9913 29.7389 27.6145 29.7799C27.0977 29.8289 26.5971 29.9865 26.1458 30.2424C25.6945 30.4983 25.3027 30.8466 24.9963 31.2645C24.6915 31.6641 24.437 32.1109 24.1383 32.5698C24.0774 32.4999 24.0286 32.4467 23.9859 32.3905C23.7055 32.0091 23.3855 31.7006 23.0883 31.3268C22.6348 30.8175 22.141 30.3454 21.6116 29.9151C21.2543 29.6515 20.8796 29.4124 20.4899 29.1994C19.5634 28.6554 18.6931 28.4685 17.6416 28.4259C16.7912 28.391 15.9652 28.587 15.1286 28.8058C14.5324 28.9587 13.9541 29.1741 13.4035 29.4486C12.5687 29.8717 11.8068 30.4247 11.1465 31.0867C10.6522 31.5811 10.2203 32.1337 9.86021 32.7324C9.59891 33.1951 9.38349 33.6822 9.21706 34.1866C9.02656 34.717 9.01287 35.2731 8.93362 35.8187C8.91535 35.9416 8.91535 36.0665 8.93362 36.1894C8.93362 36.2046 8.93363 36.2213 8.9443 36.2381C8.98697 36.4052 8.97782 36.5708 9.00678 36.7441C9.01714 36.8028 9.02225 36.8623 9.02202 36.9219C9.01288 37.6497 9.23536 38.3168 9.49901 38.9687C9.75039 39.603 10.0973 40.1953 10.5277 40.7254C11.0391 41.3071 11.6667 41.776 12.3702 42.1021C12.9295 42.3282 13.523 42.4587 14.1258 42.4881C14.8624 42.5297 15.5999 42.4233 16.2944 42.175C17.2812 41.8307 18.1563 41.2269 18.8273 40.4275C19.4609 39.6859 19.8732 38.782 20.0175 37.8184C20.0826 37.2897 20.1081 36.7569 20.0937 36.2244C20.1026 35.3845 19.9213 34.5534 19.5633 33.7931C19.1397 32.8813 18.4768 32.2629 17.477 32.0228C17.1693 31.9441 16.847 31.941 16.5377 32.0137C16.2285 32.0865 15.9416 32.233 15.7016 32.4406C15.5779 32.5444 15.4801 32.6754 15.4161 32.8234C15.3521 32.9714 15.3236 33.1322 15.3328 33.2931C15.333 33.3554 15.3536 33.4159 15.3916 33.4653C15.4296 33.5147 15.4828 33.5503 15.5431 33.5667C15.6917 33.621 15.8556 33.6155 16.0003 33.5515C16.0361 33.5405 16.0662 33.5159 16.0841 33.4831C16.2023 33.2273 16.3425 32.9822 16.5032 32.7506C16.7196 32.4832 16.9863 32.4893 17.2286 32.7278C17.3582 32.8557 17.4686 33.0016 17.5563 33.1609C18.0455 34.0499 18.2345 35.0254 18.3183 36.0177C18.3492 36.4893 18.3267 36.9628 18.2512 37.4294C18.1434 38.1763 17.8673 38.8891 17.4435 39.5143C16.9105 40.3304 16.1521 40.9753 15.2597 41.3712C14.4413 41.7298 13.7905 41.6356 13.1962 41.0156C12.0721 39.8741 11.4315 38.3452 11.407 36.7456C11.403 36.4055 11.4203 36.0654 11.4589 35.7275C11.5799 34.6262 11.987 33.5755 12.64 32.6792C13.1952 31.9259 13.8799 31.2766 14.6623 30.7615C15.3778 30.2543 16.1978 29.9127 17.0625 29.7616C17.8458 29.6355 18.335 29.5884 19.2387 30.0656C19.2372 30.0595 20.8785 30.9211 22.1633 33.0014Z" fill="#305083"/>
<path d="M12.9308 16.634C13.2539 16.3955 13.4917 16.2101 13.7401 16.0384C14.7091 15.3654 15.6036 14.5917 16.4085 13.7301C17.1486 12.9322 17.6643 11.9535 17.9035 10.8931C18.0727 10.2697 18.0391 9.60888 17.8075 9.00578C17.5729 8.42379 17.1903 8.27943 16.6127 8.56055C16.0352 8.84167 15.546 9.29602 15.1025 9.77621C14.4904 10.457 13.9482 11.1971 13.484 11.9857C12.6355 13.3353 11.9491 14.7797 11.4389 16.2891C10.9542 17.7509 10.5763 19.2416 10.6464 20.8022C10.7058 22.1334 11.1371 23.3278 12.0804 24.2972C12.7495 24.9902 13.5648 25.1771 14.4502 24.8321C15.517 24.4173 16.279 23.6833 16.5457 22.5269C16.6119 22.2983 16.6102 22.0554 16.5406 21.8278C16.4711 21.6001 16.3368 21.3975 16.154 21.2444C15.7416 20.8668 15.23 20.6138 14.6788 20.515C14.4589 20.4713 14.2306 20.5097 14.0372 20.6229C13.8208 20.746 13.5968 20.8584 13.3804 20.9846C13.1884 21.097 13.0345 21.0165 12.8836 20.904C12.7327 20.7916 12.7418 20.6184 12.7998 20.4482C12.9293 20.0759 13.2265 19.8814 13.5709 19.737C14.0525 19.5364 14.56 19.585 15.0568 19.6063C16.2586 19.6662 17.4184 20.0663 18.4004 20.7597C18.6486 20.9385 18.8663 21.1561 19.045 21.404C19.167 21.5728 19.2523 21.7651 19.2954 21.9687C19.3384 22.1723 19.3382 22.3827 19.2949 22.5862C19.159 23.383 18.7876 24.1211 18.2282 24.706C17.8644 25.0836 17.4487 25.408 16.9937 25.6694C15.9269 26.2955 14.7626 26.5386 13.5313 26.5812C12.6437 26.609 11.7572 26.4983 10.9039 26.2529C10.1113 26.0457 9.38553 25.6385 8.79632 25.0707C8.18148 24.4921 7.72285 23.7682 7.46284 22.9661C7.13812 21.8875 7.05384 20.7512 7.21594 19.6367C7.35757 18.6083 7.61629 17.5994 7.98708 16.6295C8.25225 15.9305 8.49761 15.2208 8.82374 14.5507C9.33323 13.4644 9.9429 12.4276 10.6449 11.4538C11.0819 10.8345 11.5632 10.2474 12.085 9.69718C12.9232 8.85838 13.8239 8.11379 14.9333 7.664C15.9117 7.26739 16.9145 7.02426 17.9813 7.20053C18.5935 7.27526 19.1645 7.54739 19.6074 7.97551C19.7893 8.15835 19.9285 8.37904 20.0149 8.62177C20.1013 8.86451 20.1328 9.12329 20.1072 9.37959C20.0177 10.8422 19.5053 12.2477 18.632 13.4262C17.8073 14.5683 16.7286 15.5045 15.4804 16.1614C15.0293 16.4036 14.5606 16.6119 14.0784 16.7845C13.8233 16.8442 13.5596 16.8581 13.2996 16.8255C13.2051 16.8164 13.1137 16.7283 12.9308 16.634Z" fill="#305083"/>
<path d="M32.3556 27.8485C32.2998 27.9115 32.2247 27.9542 32.1419 27.9699C32.0591 27.9856 31.9734 27.9734 31.8984 27.9351C31.7305 27.8673 31.5797 27.7636 31.4565 27.6312C31.2476 27.3764 31.095 27.0805 31.0086 26.7629C30.9222 26.4453 30.904 26.1131 30.9551 25.788C31.0594 25.1195 31.4059 24.5124 31.9289 24.0815C32.9668 23.2263 34.2275 22.6834 35.5636 22.5163C36.7005 22.3514 37.8602 22.4497 38.9529 22.8035C41.0956 23.5025 42.3356 24.9715 42.6729 27.2103C42.8393 28.3011 42.8965 29.4057 42.8436 30.5078C42.7918 31.5229 42.7628 32.541 42.682 33.5469C42.615 34.3918 42.5098 35.2352 42.3772 36.0709C42.2538 36.8596 42.0724 37.6376 41.9292 38.4247C41.6983 39.6257 41.3929 40.8112 41.0148 41.9745C40.7816 42.7343 40.454 43.4697 40.1644 44.2143C40.1224 44.3285 40.0477 44.4279 39.9497 44.5002C39.8517 44.5726 39.7345 44.6148 39.6128 44.6216C39.226 44.6785 38.831 44.6148 38.482 44.4392C38.4075 44.4118 38.3455 44.3587 38.3069 44.2896C38.2683 44.2205 38.2558 44.1399 38.2717 44.0624C38.2976 43.8709 38.3296 43.6779 38.3692 43.4895C38.5475 42.6355 38.7456 41.786 38.9056 40.9275C39.1418 39.6662 39.3628 38.4004 39.5655 37.1286C39.6448 36.6271 39.6432 36.1135 39.6844 35.609C39.7332 35.0164 39.8048 34.4268 39.8368 33.8356C39.8932 32.7719 39.9587 31.7082 39.9602 30.6354C39.9602 29.7024 39.9008 28.7679 39.8261 27.8364C39.7469 26.8426 39.5731 25.8609 39.0641 24.978C38.5094 24.0055 37.6438 23.5481 36.5389 23.5481C35.4225 23.5558 34.3396 23.9296 33.4574 24.6118C32.4684 25.3412 31.9152 26.5174 32.3556 27.8485Z" fill="#305083"/>
<path d="M29.0292 14.7589C29.1527 14.6875 29.2624 14.6207 29.3767 14.5584C29.8234 14.308 30.2114 13.9656 30.515 13.5539C30.7926 13.1874 30.9427 12.7406 30.9427 12.2813C30.9427 11.822 30.7926 11.3752 30.515 11.0086C29.9417 10.2108 29.1154 9.62892 28.1696 9.35687C27.8072 9.25045 27.4254 9.22688 27.0525 9.28791C26.6797 9.34895 26.3256 9.49302 26.0164 9.70941C25.0504 10.318 24.325 11.2408 23.9634 12.3216C23.6679 13.1907 23.677 14.0645 24.1661 14.8851C24.4199 15.3033 24.7836 15.6443 25.2178 15.8713C25.9005 16.239 26.6046 16.5703 27.2995 16.9152C28.0493 17.2875 28.7778 17.675 29.4026 18.26C30.317 19.1019 30.3292 20.784 29.2853 21.6548C28.7809 22.0735 28.2047 22.3979 27.5845 22.6121C26.2556 23.0801 24.8962 23.1379 23.517 22.9555C22.8183 22.8499 22.1374 22.6495 21.4932 22.3598C21.036 22.1638 20.6154 21.8903 20.3746 21.4147C20.3046 21.2795 20.2696 21.1291 20.2727 20.977C20.2759 20.8249 20.3171 20.676 20.3928 20.544C20.4254 20.4867 20.4691 20.4364 20.5215 20.3962C20.5738 20.356 20.6337 20.3267 20.6976 20.3099C20.9902 20.2537 21.3072 20.1869 21.5922 20.4437C21.597 20.542 21.5944 20.6405 21.5845 20.7385C21.5556 20.8829 21.5754 21.0329 21.6407 21.1651C21.706 21.2973 21.8131 21.4043 21.9457 21.4694C22.176 21.6043 22.4166 21.7212 22.6651 21.8189C23.5201 22.1486 24.4039 22.3021 25.3107 22.0894C26.2174 21.8766 26.9169 21.3888 27.2827 20.5181C27.5555 19.8693 27.4352 19.269 26.9475 18.7402C26.4903 18.2494 25.9143 17.9409 25.3291 17.6537C24.532 17.2617 23.7273 16.8863 23.0233 16.3378C22.5493 15.9655 22.0829 15.5856 21.775 15.0431C21.4212 14.4313 21.2753 13.7218 21.3591 13.0206C21.4704 11.9857 21.9213 11.1013 22.5782 10.3172C22.9729 9.84605 23.45 9.45013 23.9863 9.14869C24.5417 8.82946 25.1424 8.59584 25.7678 8.45576C26.4379 8.32652 27.1232 8.29428 27.8025 8.36003C28.7768 8.42903 29.7178 8.74268 30.538 9.27177C30.9435 9.52068 31.2957 9.84706 31.5743 10.2321C32.1382 11.036 32.1961 11.9113 31.8791 12.8276C31.562 13.7439 30.9647 14.3866 30.1814 14.9063C29.7973 15.1586 29.4331 15.11 29.0292 14.7589Z" fill="#305083"/>
<path d="M36.2478 8.43452C37.5265 8.39501 38.5414 8.64118 39.5031 9.17911C40.0784 9.48769 40.6099 9.87148 41.0834 10.3203C41.4666 10.7189 41.7992 11.1629 42.074 11.6423C42.3209 12.042 42.4215 12.4887 42.5815 12.9142C42.659 13.1695 42.699 13.4346 42.7004 13.7014C42.7765 14.7438 42.4534 15.6677 41.9094 16.549C41.4175 17.3295 40.8281 18.0443 40.1553 18.6764C38.8858 19.8921 37.4122 20.8038 35.687 21.2263C35.1111 21.3742 34.5269 21.4884 33.9375 21.5682C33.5393 21.5927 33.1398 21.5861 32.7427 21.5484C32.6697 21.5504 32.5979 21.5285 32.5385 21.4861C32.4373 21.4076 32.3602 21.3023 32.316 21.1822C32.2916 21.0302 32.4501 20.971 32.5827 20.9345C32.8037 20.8707 33.0231 20.7978 33.2487 20.7491C35.1765 20.3328 36.731 19.3055 38.0096 17.8391C38.6271 17.1687 39.1566 16.4227 39.5853 15.6191C40.2848 14.2241 40.3809 12.8306 39.5274 11.463C39.1227 10.7792 38.5646 10.1982 37.8968 9.76566C37.386 9.43089 36.7931 9.24172 36.1823 9.21862C35.9502 9.19831 35.7169 9.24166 35.5076 9.34396C35.2984 9.44627 35.1212 9.60365 34.9951 9.79909C34.9236 9.89027 34.8735 9.99636 34.8487 10.1095C34.8239 10.2226 34.825 10.3399 34.8519 10.4525C34.9022 10.6227 34.8107 10.7017 34.6827 10.7671C34.614 10.8113 34.5349 10.8368 34.4532 10.841C34.3715 10.8453 34.2902 10.8281 34.2172 10.7912C34.1443 10.7543 34.0824 10.6989 34.0376 10.6307C33.9928 10.5625 33.9667 10.4838 33.9619 10.4024C33.912 10.1132 33.9522 9.81578 34.077 9.55008C34.2018 9.28439 34.4052 9.06318 34.6599 8.91622C35.1309 8.60498 35.6828 8.43757 36.2478 8.43452Z" fill="#305083"/>
</g>
</g>
<defs>
<clipPath id="clip0_10_4253">
<rect width="50" height="50" fill="white"/>
</clipPath>
</defs>
</svg>
