<?xml version="1.0" encoding="utf-8"?>
<!-- Generator: Adobe Illustrator 26.3.1, SVG Export Plug-In . SVG Version: 6.00 Build 0)  -->
<svg version="1.1" id="Layer_1" xmlns="http://www.w3.org/2000/svg" xmlns:xlink="http://www.w3.org/1999/xlink" x="0px" y="0px"
	 viewBox="0 0 32 23" style="enable-background:new 0 0 32 23;" xml:space="preserve">
<style type="text/css">
	.st0{fill:#305083;stroke:#305083;stroke-miterlimit:10;}
</style>
<g>
	<path class="st0" d="M1.5,3.5c0-0.7,0.1-1,0.3-1.4c0.5-0.7,1.4-0.9,2.3-0.9c0,0,0.1,0,0.1,0c7.9,0,15.7,0,23.6,0
		c1.1,0,2,0.4,2.5,1.5c0.2,0.4,0.3,0.8,0.3,1.2c0,5.1,0,10.1,0,15.2c0,1.6-1.1,2.6-2.7,2.6c-6.5,0-13,0-19.6,0c-1.3,0-2.7,0-4,0
		c-1.5,0-2.6-0.9-2.8-2.2c0,0,0-0.3,0-0.3C1.5,13.9,1.5,8.8,1.5,3.5z M4.4,3c0.1,0.1,0.1,0.1,0.1,0.1c3.2,3.2,6.4,6.4,9.6,9.5
		c0.2,0.2,0.4,0.3,0.6,0.5c1.1,0.6,2.3,0.5,3.2-0.5c3.2-3.2,6.3-6.3,9.5-9.5c0,0,0.1-0.1,0.2-0.2C19.8,3,12.1,3,4.4,3z M4.6,20
		c7.6,0,15.3,0,22.9,0c-2.3-2.4-4.7-4.8-7.2-7.3c-0.4,0.4-0.8,0.8-1.2,1.2c-0.8,0.8-1.7,1.2-2.8,1.3c-1.3,0.1-2.4-0.4-3.3-1.3
		c-0.4-0.4-0.8-0.8-1.2-1.2C9.3,15.2,6.9,17.6,4.6,20z M3.2,4.2c0,4.9,0,9.7,0,14.6c2.4-2.5,4.8-4.9,7.2-7.3C8,9.1,5.6,6.7,3.2,4.2z
		 M21.7,11.5c2.3,2.4,4.7,4.8,7.2,7.3c0-4.9,0-9.7,0-14.6C26.4,6.7,24,9.1,21.7,11.5z"/>
</g>
</svg>
