<svg width="16" height="23" viewBox="0 0 16 23" fill="none" xmlns="http://www.w3.org/2000/svg">
<path d="M11.6386 0.875L11.6533 0.878644C11.7261 0.896611 11.8031 0.913203 11.8822 0.930242C12.0606 0.968663 12.2494 1.00936 12.424 1.0732C13.8923 1.60768 14.8162 2.68255 15.0663 4.28045C15.3166 5.87877 14.7588 7.19848 13.5352 8.19444C13.5294 8.19918 13.5236 8.20388 13.5177 8.20857C14.5512 9.04041 15.1197 10.1359 15.1229 11.5254M11.6386 0.875L14.9979 11.526M11.6386 0.875H11.6234H4.3936H4.36861L4.34554 0.884612C4.31713 0.896444 4.288 0.90616 4.25836 0.913699C2.75651 1.16691 1.68327 2.02883 1.14659 3.50835L1.14657 3.5084C0.61477 4.97639 0.874453 6.35386 1.83371 7.56014L11.6386 0.875ZM15.1229 11.5254C15.1229 11.5255 15.1229 11.5256 15.1229 11.5257L14.9979 11.526M15.1229 11.5254C15.1229 11.5252 15.1229 11.5251 15.1229 11.525L14.9979 11.526M15.1229 11.5254C15.1306 12.466 14.8098 13.378 14.2195 14.0909M14.9979 11.526C15.0055 12.4381 14.6943 13.3219 14.1227 14.0118M14.2195 14.0909C14.2196 14.0907 14.2198 14.0905 14.22 14.0903L14.1227 14.0118M14.2195 14.0909C14.2193 14.0911 14.2191 14.0913 14.2189 14.0916L14.1227 14.0118M14.2195 14.0909L14.1227 14.0118M1.37009 19.724C2.12938 21.4166 3.96018 22.3341 5.68602 21.8877C7.43496 21.4336 8.61509 19.8801 8.6282 17.9985L1.37009 19.724ZM1.37009 19.724C1.00459 18.9056 0.920725 17.9806 1.13266 17.1051M1.37009 19.724L1.13266 17.1051M4.33011 2.32835L4.35454 2.45094C4.48806 2.42434 4.62365 2.41084 4.75955 2.41062L4.75976 2.41062C5.30938 2.4088 5.85876 2.40941 6.40862 2.41001C6.68377 2.41032 6.95904 2.41062 7.23451 2.41062C7.2406 2.41062 7.24642 2.41083 7.25224 2.41121V7.43951H7.03774C6.78863 7.43951 6.53966 7.43988 6.29078 7.44024C5.79341 7.44097 5.29638 7.4417 4.79927 7.43951C3.5532 7.43379 2.50273 6.4628 2.39137 5.2117L2.39137 5.21168C2.27011 3.85129 3.09252 2.70413 4.3547 2.45091L4.33011 2.32835ZM4.33011 2.32835C4.4716 2.30016 4.6153 2.28586 4.75935 2.28562L7.25224 7.56451H7.03774C6.78903 7.56451 6.54027 7.56488 6.29149 7.56524C5.79387 7.56597 5.29617 7.5667 4.7987 7.56451C3.48739 7.55849 2.38388 6.53744 2.26686 5.22278C2.1404 3.80405 3.00044 2.59512 4.33011 2.32835ZM7.23399 8.86054C7.01563 8.86054 6.79728 8.8602 6.57894 8.85985C5.97244 8.85889 5.36601 8.85793 4.75987 8.86438L2.26948 11.8547M7.23399 8.86054L7.23244 8.98553C7.23268 8.98554 7.23292 8.98554 7.23316 8.98554M7.23399 8.86054V8.98554C7.23371 8.98554 7.23344 8.98554 7.23316 8.98554M7.23399 8.86054C7.26352 8.86091 7.29305 8.86373 7.3259 8.86688C7.34208 8.86843 7.35906 8.87005 7.37724 8.8715L7.25224 14.1367H7.13009C6.88709 14.1367 6.6439 14.1378 6.40058 14.139C5.8395 14.1417 5.27778 14.1443 4.71632 14.1329M7.23316 8.98554C7.01464 8.98554 6.79629 8.9852 6.57807 8.98485C5.97181 8.98389 5.36651 8.98293 4.7612 8.98937L4.76053 8.98938C4.56819 8.99039 4.37663 9.01534 4.18987 9.06371L4.15853 8.94271L4.19021 9.06362C3.00241 9.37491 2.25881 10.5178 2.39382 11.8418M7.23316 8.98554C7.23966 8.98563 7.24595 8.98585 7.25224 8.98617V14.0117H7.13009C6.8858 14.0117 6.64189 14.0128 6.3982 14.014C5.83786 14.0167 5.27871 14.0193 4.71887 14.0079M2.39382 11.8418C2.39382 11.8418 2.39381 11.8417 2.39381 11.8417L2.26948 11.8547M2.39382 11.8418C2.39383 11.8418 2.39383 11.8419 2.39384 11.842L2.26948 11.8547M2.39382 11.8418C2.5171 13.0252 3.53785 13.9835 4.71887 14.0079M2.26948 11.8547C2.39909 13.0992 3.4706 14.1071 4.71632 14.1329M4.71887 14.0079L4.71632 14.1329M4.71887 14.0079C4.71888 14.0079 4.71889 14.0079 4.7189 14.0079L4.71632 14.1329M11.3107 8.98801L11.2075 8.98773C9.83697 8.98409 8.75678 10.0821 8.75478 11.495C8.75277 12.9085 9.82244 14.0071 11.178 14.0139C12.5543 14.0207 13.6501 12.9078 13.6461 11.4964L11.3107 8.98801ZM11.3107 8.98801C12.6156 9.04638 13.6407 10.1298 13.6461 11.4962L11.3107 8.98801ZM1.13266 17.1051C1.34459 16.2296 1.83934 15.4573 2.53343 14.9184L1.13266 17.1051ZM8.7532 14.5192C8.71132 14.4844 8.66965 14.4485 8.6282 14.4117V14.5774C8.66819 14.6114 8.70838 14.6445 8.74879 14.6768C8.75026 14.678 8.75173 14.6791 8.7532 14.6803C8.7532 14.6791 8.7532 14.678 8.7532 14.6768V14.5192ZM2.50106 14.7858C2.53456 14.8125 2.56854 14.839 2.603 14.8652L2.70606 14.7864C2.67137 14.7603 2.63717 14.734 2.60346 14.7075L2.50106 14.7858ZM2.58086 8.30864C2.61373 8.28271 2.64707 8.25706 2.68088 8.2317C2.65083 8.20201 2.62048 8.17271 2.58996 8.14368C2.55616 8.16923 2.52281 8.19507 2.48993 8.2212C2.52081 8.25041 2.55119 8.27953 2.58086 8.30864ZM13.3125 8.20705C13.3472 8.23331 13.3815 8.25984 13.4152 8.28665L13.3125 8.20705ZM11.1843 7.4417H11.1842H11.1796H11.1751H11.1705H11.1659H11.1614H11.1568H11.1522H11.1477H11.1431H11.1385H11.134H11.1294H11.1248H11.1203H11.1157H11.1111H11.1066H11.102H11.0974H11.0929H11.0883H11.0837H11.0792H11.0746H11.07H11.0655H11.0609H11.0563H11.0518H11.0472H11.0426H11.0381H11.0335H11.0289H11.0244H11.0198H11.0152H11.0107H11.0061H11.0016H10.997H10.9924H10.9879H10.9833H10.9787H10.9742H10.9696H10.965H10.9605H10.9559H10.9513H10.9468H10.9422H10.9376H10.9331H10.9285H10.9239H10.9194H10.9148H10.9102H10.9057H10.9011H10.8965H10.892H10.8874H10.8828H10.8783H10.8737H10.8691H10.8646H10.86H10.8554H10.8509H10.8463H10.8417H10.8372H10.8326H10.8281H10.8235H10.8189H10.8144H10.8098H10.8052H10.8007H10.7961H10.7915H10.787H10.7824H10.7778H10.7733H10.7687H10.7641H10.7596H10.755H10.7504H10.7459H10.7413H10.7367H10.7322H10.7276H10.723H10.7185H10.7139H10.7093H10.7048H10.7002H10.6956H10.6911H10.6865H10.6819H10.6774H10.6728H10.6682H10.6637H10.6591H10.6545H10.65H10.6454H10.6409H10.6363H10.6317H10.6272H10.6226H10.618H10.6135H10.6089H10.6043H10.5998H10.5952H10.5906H10.5861H10.5815H10.5769H10.5724H10.5678H10.5632H10.5587H10.5541H10.5495H10.545H10.5404H10.5358H10.5313H10.5267H10.5221H10.5176H10.513H10.5084H10.5039H10.4993H10.4947H10.4902H10.4856H10.481H10.4765H10.4719H10.4674H10.4628H10.4582H10.4537H10.4491H10.4445H10.44H10.4354H10.4308H10.4263H10.4217H10.4171H10.4126H10.408H10.4034H10.3989H10.3943H10.3897H10.3852H10.3806H10.376H10.3715H10.3669H10.3623H10.3578H10.3532H10.3486H10.3441H10.3395H10.3349H10.3304H10.3258H10.3212H10.3167H10.3121H10.3075H10.303H10.2984H10.2939H10.2893H10.2847H10.2802H10.2756H10.271H10.2665H10.2619H10.2573H10.2528H10.2482H10.2436H10.2391H10.2345H10.2299H10.2254H10.2208H10.2162H10.2117H10.2071H10.2025H10.198H10.1934H10.1888H10.1843H10.1797H10.1751H10.1706H10.166H10.1614H10.1569H10.1523H10.1477H10.1432H10.1386H10.134H10.1295H10.1249H10.1204H10.1158H10.1112H10.1067H10.1021H10.0975H10.093H10.0884H10.0838H10.0793H10.0747H10.0701H10.0656H10.061H10.0564H10.0519H10.0473H10.0427H10.0382H10.0336H10.029H10.0245H10.0199H10.0153H10.0108H10.0062H10.0016H9.99708H9.99251H9.98794H9.98338H9.97881H9.97425H9.96968H9.96512H9.96055H9.95598H9.95142H9.94685H9.94229H9.93772H9.93315H9.92859H9.92402H9.91946H9.91489H9.91033H9.90576H9.90119H9.89663H9.89206H9.8875H9.88293H9.87836H9.8738H9.86923H9.86467H9.8601H9.85554H9.85097H9.8464H9.84184H9.83727H9.83271H9.82814H9.82358H9.81901H9.81444H9.80988H9.80531H9.80075H9.79618H9.79161H9.78705H9.78248H9.77792H9.77335H9.76879H9.76422H9.75965H9.75509H9.75052H9.74596H9.74139H9.73682H9.73226H9.72769H9.72313H9.71856H9.714H9.70943H9.70486H9.7003H9.69573H9.69117H9.6866H9.68204H9.67747H9.6729H9.66834H9.66377H9.65921H9.65464H9.65007H9.64551H9.64094H9.63638H9.63181H9.62725H9.62268H9.61811H9.61355H9.60898H9.60442H9.59985H9.59529H9.59072H9.58615H9.58159H9.57702H9.57246H9.56789H9.56332H9.55876H9.55419H9.54963H9.54506H9.5405H9.53593H9.53136H9.5268H9.52223H9.51767H9.5131H9.50854H9.50397H9.4994H9.49484H9.49027H9.48571H9.48114H9.47657H9.47201H9.46744H9.46288H9.45831H9.45375H9.44918H9.44461H9.44005H9.43548H9.43092H9.42635H9.42179H9.41722H9.41265H9.40809H9.40352H9.39896H9.39439H9.38982H9.38526H9.38069H9.37613H9.37156H9.367H9.36243H9.35786H9.3533H9.34873H9.34417H9.3396H9.33504H9.33047H9.3259H9.32134H9.31677H9.31221H9.30764H9.30307H9.29851H9.29394H9.28938H9.28481H9.28025H9.27568H9.27111H9.26655H9.26198H9.25742H9.25285H9.24829H9.24372H9.23915H9.23459H9.23002H9.22546H9.22089H9.21632H9.21176H9.20719H9.20263H9.19806H9.1935H9.18893H9.18436H9.1798H9.17523H9.17067H9.1661H9.16154H9.15697H9.1524H9.14784H9.14327H9.13871H9.13414H9.12957H9.12501H9.12044H9.11588H9.11131H9.10675H9.10218H9.09761H9.09305H9.08848H9.08392H9.07935H9.07479H9.07022H9.06565H9.06109H9.05652H9.05196H9.04739H9.04282H9.03826H9.03369H9.02913H9.02456H9.02H9.01543H9.01086H9.0063H9.00173H8.99717H8.9926H8.98803H8.98347H8.9789H8.97434H8.96977H8.96521H8.96064H8.95607H8.95151H8.94694H8.94238H8.93781H8.93325H8.92868H8.92411H8.91955H8.91498H8.91042H8.90585H8.90128H8.89672H8.89215H8.88759H8.88302H8.87846H8.87389H8.86932H8.86476H8.86019H8.85563H8.85106H8.8465H8.76155L8.75954 2.42012C9.02016 2.42036 9.27963 2.41765 9.53826 2.41496C10.1938 2.40813 10.8439 2.40136 11.4937 2.44269C12.6714 2.51786 13.5951 3.58201 13.642 4.87562C13.6855 6.08282 12.8119 7.19952 11.6704 7.40134C11.5096 7.42842 11.3471 7.44192 11.1843 7.4417ZM6.49994 15.5547C6.75034 15.5569 7.00127 15.559 7.25294 15.5593C7.25377 15.8326 7.2575 16.1036 7.2612 16.373C7.27015 17.023 7.27897 17.6639 7.24664 18.3059C7.17623 19.5959 5.97057 20.6558 4.72796 20.5874C3.44035 20.516 2.4855 19.5559 2.3794 18.21L2.37939 18.2097C2.2732 16.8936 3.32364 15.6217 4.56878 15.5702C5.21141 15.5436 5.85391 15.5492 6.49994 15.5547Z" fill="#305083" stroke="#305083" stroke-width="0.25"/>
</svg>
