<?xml version="1.0" encoding="utf-8"?>
<!-- Generator: Adobe Illustrator 26.3.1, SVG Export Plug-In . SVG Version: 6.00 Build 0)  -->
<svg version="1.1" id="Layer_1" xmlns="http://www.w3.org/2000/svg" xmlns:xlink="http://www.w3.org/1999/xlink" x="0px" y="0px"
	 viewBox="0 0 16 23" style="enable-background:new 0 0 16 23;" xml:space="preserve">
<style type="text/css">
	.st0{fill:#305083;stroke:#305083;stroke-miterlimit:10;}
</style>
<g>
	<path class="st0" d="M4.4,21.5c-0.6,0-1.3-0.3-1.8-0.7c-0.5-0.4-0.9-0.8-1.2-1.4c-0.2-0.3-0.3-0.7-0.3-1c-0.3-1.5,0.3-2.7,1.5-3.7
		l0.1-0.1C1.6,13.8,1,12.8,1,11.5c0-1.4,0.6-2.3,1.7-3.1c0-0.1-0.1-0.1-0.1-0.2c-1.3-1-1.7-2.3-1.4-3.9s1.5-2.4,3-2.7
		c0.2,0,0.5-0.1,0.7-0.1c2.1,0,4.2,0,6.3,0c1.8,0,3.4,1.3,3.7,3.1c0.3,1.5-0.3,2.7-1.5,3.6c-0.1,0-0.1,0.1-0.2,0.1
		c1,0.7,1.6,1.7,1.7,2.9c0,1-0.3,1.8-0.9,2.5c-1.3,1.6-3.8,1.8-5.4,0.4c0,0.1,0,0.2,0,0.2c0,1.1,0,2.1,0,3.2c0,2.2-1.1,3.2-2.2,3.6
		c-0.1,0.1-0.5,0.2-0.7,0.2c-0.3,0.1-0.5,0-0.8,0.1C4.8,21.5,4.6,21.5,4.4,21.5z M7.4,2.8C7.3,2.8,7.3,2.8,7.4,2.8
		c-0.9,0-1.7,0-2.5,0c-0.1,0-0.3,0-0.4,0C3.1,3,2.2,4.2,2.3,5.5c0.1,1.4,1.2,2.3,2.5,2.3c0.8,0,1.6,0,2.4,0c0.1,0,0.1,0,0.2,0
		C7.4,6.1,7.4,4.4,7.4,2.8z M8.6,7.7c0.9,0,1.7,0,2.6,0c0.2,0,0.3,0,0.5,0c1.2-0.2,2-1.4,2-2.5c-0.1-1.3-1-2.3-2.2-2.4
		c-1-0.1-1.8,0-2.8,0c0,0,0,0-0.1,0C8.6,4.4,8.6,6.1,8.6,7.7z M7.4,14c0-1.7,0-3.3,0-5H7.3c-0.9,0-1.7,0-2.6,0c-1.4,0-2.3,1-2.4,2.3
		c-0.1,1.2,0.8,2.4,2,2.5C5.3,14,6.4,14,7.4,14z M7.5,15.3c-0.9,0-1.9,0-2.7,0c-1.7,0-2.8,1.7-2.3,3.2c0.3,1.3,1.5,1.9,2.8,1.8
		c1.2-0.1,2.1-1.2,2.2-2.4c0-0.6,0-1.2,0-1.7C7.6,15.7,7.5,15.6,7.5,15.3z M11.2,9C9.8,9,8.7,10,8.7,11.5c0,1.4,1.1,2.5,2.5,2.5
		s2.6-1.1,2.6-2.5C13.7,10.1,12.6,9,11.2,9z"/>
</g>
</svg>
